<?xml version="1.0" encoding="UTF-8"?>
<!DOCTYPE svg PUBLIC "-//W3C//DTD SVG 1.1//EN" "http://www.w3.org/Graphics/SVG/1.1/DTD/svg11.dtd">
<svg xmlns="http://www.w3.org/2000/svg" xmlns:xlink="http://www.w3.org/1999/xlink" version="1.1" width="412px" height="286px" viewBox="-0.5 -0.5 412 286" content="&lt;mxfile host=&quot;Electron&quot; modified=&quot;2020-03-19T11:31:47.980Z&quot; agent=&quot;Mozilla/5.0 (Macintosh; Intel Mac OS X 10_14_6) AppleWebKit/537.36 (KHTML, like Gecko) draw.io/12.6.5 Chrome/80.0.3987.86 Electron/8.0.0 Safari/537.36&quot; etag=&quot;OI0F8qqEqkJojPTeZzYw&quot; version=&quot;12.6.5&quot; type=&quot;device&quot;&gt;&lt;diagram id=&quot;pm_aSo-CSPXdktMC1BvH&quot; name=&quot;Page-1&quot;&gt;7Zpbb5swFMc/TR4bcQshj22adqo2qVKnXZ4iFxywZjCynYTs088MzM0paSvIyEofKnx8OHbO/0c5OfXEXIbJPQVx8IV4EE8MzUsm5u3EMOaOLX6nhkNm0G1Hyyw+RV5uKw1P6DfMjdJtizzIao6cEMxRXDe6JIqgy2s2QCnZ1902BNdXjYEPFcOTC7Bq/Y48HmRWZ6aV9k8Q+YFcWdfymRBI59zAAuCRfcVkribmkhLCs6swWUKcJk/mJbvv7oXZYmMURvw1Nzzw1fLnAWzd66VhfP324+HA7q7mWZQdwNv6B2b8IFMAI+86zaQYRSQSxpuAh1iMdHHJOKBcThMRR9ruEE59NDHG4BniR8IQRyQSNlfsGFIxsYOUI5Hrzw2HZ8I5CYUDwMg/esd1PsFJLKxqKvJPAb2aunli7iEJIacH4ZBzepX770uJpcJBRV1poxADjnb1jIGcNL+IXiz4SJDYWLFagUT+UBRxZQhGttSF+V1VSU8F0hqBhBA+5C2BpCPZbBis+YiLSqZK01+q3kCYPlMQM0bEekfM6gqxZqAhImYriJkjYr0jZneFWDPQEBFTX5TWiFjviDldIdYMNETEHAWx2YhY34iZmjad291QdizWEEFbKKDZI2i9g9ZV0a8EGiBicosVxOYjYr0j1lXRrwQaImKGgpg+hJIsI+ckYAWKnTF2kEPtnMw1WxD6eyu0Rhz7rcQl9fWb2TgDkKYK5BC+hn40IK2OgLQuHkhLBXIIrbePBqTdEZD2xQOptoL1Ify74aMB6XQEpHPxQKqNY7n4COQ/7cG8l8kjoS4QS7XZvBipPDuVhjbVKj/1zbwb0NaoF8iq2rV2RlbPzqrVC6utUS+PVfVtr5BKyTbyoJdjtw8Qh08xcNPZPQVxk1xKfhXHgoQ2NxuB7JJgQkvSXyQrZREmr2FrcbzOqqBl6UfY0q1GZqsc1XL75of+dCJPtmCL41Bpoj3AgiLrylNbSfnxPq2IFafrhomfnkKbQgxdTlO/KYk5WWdjEiGXTedrBv1QhF57iMUYHNZ7xIO1l8aJU1IhXe3ENMtX7EA/vYG8owo4X0wdVcGFPV30JKHarBolbJGw+VdrCBKq7Z1RwhYJrQFKqDZERglbJDQHKKH8atamoQiDYgZPVxSAxdkh5g1KUhkbJYbeW4lhLGaNktFQUiubx7Uaw+jr/aT/H2k16mm1ekurGJZnybOKuTyRb67+AA==&lt;/diagram&gt;&lt;/mxfile&gt;"><defs/><g><path d="M 131 263 L 131 216" fill="none" stroke="#000000" stroke-miterlimit="10" pointer-events="stroke"/><ellipse cx="131" cy="266" rx="3" ry="3" fill="none" stroke="#000000" pointer-events="all"/><g transform="translate(-0.5 -0.5)"><switch><foreignObject style="overflow: visible; text-align: left;" pointer-events="none" width="100%" height="100%" requiredFeatures="http://www.w3.org/TR/SVG11/feature#Extensibility"><div xmlns="http://www.w3.org/1999/xhtml" style="display: flex; align-items: unsafe flex-start; justify-content: unsafe center; width: 1px; height: 1px; padding-top: 273px; margin-left: 131px;"><div style="box-sizing: border-box; font-size: 0; text-align: center; "><div style="display: inline-block; font-size: 11px; font-family: Helvetica; color: #000000; line-height: 1.2; pointer-events: all; background-color: #ffffff; white-space: nowrap; ">1</div></div></div></foreignObject><text x="131" y="284" fill="#000000" font-family="Helvetica" font-size="11px" text-anchor="middle">1</text></switch></g><path d="M 151 263 L 151 216" fill="none" stroke="#000000" stroke-miterlimit="10" pointer-events="stroke"/><ellipse cx="151" cy="266" rx="3" ry="3" fill="none" stroke="#000000" pointer-events="all"/><g transform="translate(-0.5 -0.5)"><switch><foreignObject style="overflow: visible; text-align: left;" pointer-events="none" width="100%" height="100%" requiredFeatures="http://www.w3.org/TR/SVG11/feature#Extensibility"><div xmlns="http://www.w3.org/1999/xhtml" style="display: flex; align-items: unsafe flex-start; justify-content: unsafe center; width: 1px; height: 1px; padding-top: 273px; margin-left: 151px;"><div style="box-sizing: border-box; font-size: 0; text-align: center; "><div style="display: inline-block; font-size: 11px; font-family: Helvetica; color: #000000; line-height: 1.2; pointer-events: all; background-color: #ffffff; white-space: nowrap; ">2</div></div></div></foreignObject><text x="151" y="284" fill="#000000" font-family="Helvetica" font-size="11px" text-anchor="middle">2</text></switch></g><path d="M 171 263 L 171 216" fill="none" stroke="#000000" stroke-miterlimit="10" pointer-events="stroke"/><ellipse cx="171" cy="266" rx="3" ry="3" fill="none" stroke="#000000" pointer-events="all"/><g transform="translate(-0.5 -0.5)"><switch><foreignObject style="overflow: visible; text-align: left;" pointer-events="none" width="100%" height="100%" requiredFeatures="http://www.w3.org/TR/SVG11/feature#Extensibility"><div xmlns="http://www.w3.org/1999/xhtml" style="display: flex; align-items: unsafe flex-start; justify-content: unsafe center; width: 1px; height: 1px; padding-top: 273px; margin-left: 171px;"><div style="box-sizing: border-box; font-size: 0; text-align: center; "><div style="display: inline-block; font-size: 11px; font-family: Helvetica; color: #000000; line-height: 1.2; pointer-events: all; background-color: #ffffff; white-space: nowrap; ">3</div></div></div></foreignObject><text x="171" y="284" fill="#000000" font-family="Helvetica" font-size="11px" text-anchor="middle">3</text></switch></g><path d="M 191 263 L 191 216" fill="none" stroke="#000000" stroke-miterlimit="10" pointer-events="stroke"/><ellipse cx="191" cy="266" rx="3" ry="3" fill="none" stroke="#000000" pointer-events="all"/><g transform="translate(-0.5 -0.5)"><switch><foreignObject style="overflow: visible; text-align: left;" pointer-events="none" width="100%" height="100%" requiredFeatures="http://www.w3.org/TR/SVG11/feature#Extensibility"><div xmlns="http://www.w3.org/1999/xhtml" style="display: flex; align-items: unsafe flex-start; justify-content: unsafe center; width: 1px; height: 1px; padding-top: 273px; margin-left: 191px;"><div style="box-sizing: border-box; font-size: 0; text-align: center; "><div style="display: inline-block; font-size: 11px; font-family: Helvetica; color: #000000; line-height: 1.2; pointer-events: all; background-color: #ffffff; white-space: nowrap; ">4</div></div></div></foreignObject><text x="191" y="284" fill="#000000" font-family="Helvetica" font-size="11px" text-anchor="middle">4</text></switch></g><path d="M 211.76 263 L 211.76 216" fill="none" stroke="#000000" stroke-miterlimit="10" pointer-events="stroke"/><ellipse cx="211.76" cy="266" rx="3" ry="3" fill="none" stroke="#000000" pointer-events="all"/><g transform="translate(-0.5 -0.5)"><switch><foreignObject style="overflow: visible; text-align: left;" pointer-events="none" width="100%" height="100%" requiredFeatures="http://www.w3.org/TR/SVG11/feature#Extensibility"><div xmlns="http://www.w3.org/1999/xhtml" style="display: flex; align-items: unsafe flex-start; justify-content: unsafe center; width: 1px; height: 1px; padding-top: 273px; margin-left: 212px;"><div style="box-sizing: border-box; font-size: 0; text-align: center; "><div style="display: inline-block; font-size: 11px; font-family: Helvetica; color: #000000; line-height: 1.2; pointer-events: all; background-color: #ffffff; white-space: nowrap; ">5</div></div></div></foreignObject><text x="212" y="284" fill="#000000" font-family="Helvetica" font-size="11px" text-anchor="middle">5</text></switch></g><path d="M 231 263 L 231 216" fill="none" stroke="#000000" stroke-miterlimit="10" pointer-events="stroke"/><ellipse cx="231" cy="266" rx="3" ry="3" fill="none" stroke="#000000" pointer-events="all"/><g transform="translate(-0.5 -0.5)"><switch><foreignObject style="overflow: visible; text-align: left;" pointer-events="none" width="100%" height="100%" requiredFeatures="http://www.w3.org/TR/SVG11/feature#Extensibility"><div xmlns="http://www.w3.org/1999/xhtml" style="display: flex; align-items: unsafe flex-start; justify-content: unsafe center; width: 1px; height: 1px; padding-top: 273px; margin-left: 231px;"><div style="box-sizing: border-box; font-size: 0; text-align: center; "><div style="display: inline-block; font-size: 11px; font-family: Helvetica; color: #000000; line-height: 1.2; pointer-events: all; background-color: #ffffff; white-space: nowrap; ">6</div></div></div></foreignObject><text x="231" y="284" fill="#000000" font-family="Helvetica" font-size="11px" text-anchor="middle">6</text></switch></g><path d="M 251 263 L 251 216" fill="none" stroke="#000000" stroke-miterlimit="10" pointer-events="stroke"/><ellipse cx="251" cy="266" rx="3" ry="3" fill="none" stroke="#000000" pointer-events="all"/><g transform="translate(-0.5 -0.5)"><switch><foreignObject style="overflow: visible; text-align: left;" pointer-events="none" width="100%" height="100%" requiredFeatures="http://www.w3.org/TR/SVG11/feature#Extensibility"><div xmlns="http://www.w3.org/1999/xhtml" style="display: flex; align-items: unsafe flex-start; justify-content: unsafe center; width: 1px; height: 1px; padding-top: 273px; margin-left: 251px;"><div style="box-sizing: border-box; font-size: 0; text-align: center; "><div style="display: inline-block; font-size: 11px; font-family: Helvetica; color: #000000; line-height: 1.2; pointer-events: all; background-color: #ffffff; white-space: nowrap; ">7</div></div></div></foreignObject><text x="251" y="284" fill="#000000" font-family="Helvetica" font-size="11px" text-anchor="middle">7</text></switch></g><path d="M 131 29 L 131 76" fill="none" stroke="#000000" stroke-miterlimit="10" pointer-events="stroke"/><ellipse cx="131" cy="26" rx="3" ry="3" fill="none" stroke="#000000" pointer-events="all"/><g transform="translate(-0.5 -0.5)"><switch><foreignObject style="overflow: visible; text-align: left;" pointer-events="none" width="100%" height="100%" requiredFeatures="http://www.w3.org/TR/SVG11/feature#Extensibility"><div xmlns="http://www.w3.org/1999/xhtml" style="display: flex; align-items: unsafe flex-end; justify-content: unsafe center; width: 1px; height: 1px; padding-top: 13px; margin-left: 131px;"><div style="box-sizing: border-box; font-size: 0; text-align: center; "><div style="display: inline-block; font-size: 11px; font-family: Helvetica; color: #000000; line-height: 1.2; pointer-events: all; background-color: #ffffff; white-space: nowrap; ">14</div></div></div></foreignObject><text x="131" y="13" fill="#000000" font-family="Helvetica" font-size="11px" text-anchor="middle">14</text></switch></g><path d="M 151 29 L 151 76" fill="none" stroke="#000000" stroke-miterlimit="10" pointer-events="stroke"/><ellipse cx="151" cy="26" rx="3" ry="3" fill="none" stroke="#000000" pointer-events="all"/><g transform="translate(-0.5 -0.5)"><switch><foreignObject style="overflow: visible; text-align: left;" pointer-events="none" width="100%" height="100%" requiredFeatures="http://www.w3.org/TR/SVG11/feature#Extensibility"><div xmlns="http://www.w3.org/1999/xhtml" style="display: flex; align-items: unsafe flex-end; justify-content: unsafe center; width: 1px; height: 1px; padding-top: 13px; margin-left: 151px;"><div style="box-sizing: border-box; font-size: 0; text-align: center; "><div style="display: inline-block; font-size: 11px; font-family: Helvetica; color: #000000; line-height: 1.2; pointer-events: all; background-color: #ffffff; white-space: nowrap; ">13</div></div></div></foreignObject><text x="151" y="13" fill="#000000" font-family="Helvetica" font-size="11px" text-anchor="middle">13</text></switch></g><path d="M 171 29 L 171 76" fill="none" stroke="#000000" stroke-miterlimit="10" pointer-events="stroke"/><ellipse cx="171" cy="26" rx="3" ry="3" fill="none" stroke="#000000" pointer-events="all"/><g transform="translate(-0.5 -0.5)"><switch><foreignObject style="overflow: visible; text-align: left;" pointer-events="none" width="100%" height="100%" requiredFeatures="http://www.w3.org/TR/SVG11/feature#Extensibility"><div xmlns="http://www.w3.org/1999/xhtml" style="display: flex; align-items: unsafe flex-end; justify-content: unsafe center; width: 1px; height: 1px; padding-top: 13px; margin-left: 171px;"><div style="box-sizing: border-box; font-size: 0; text-align: center; "><div style="display: inline-block; font-size: 11px; font-family: Helvetica; color: #000000; line-height: 1.2; pointer-events: all; background-color: #ffffff; white-space: nowrap; ">12</div></div></div></foreignObject><text x="171" y="13" fill="#000000" font-family="Helvetica" font-size="11px" text-anchor="middle">12</text></switch></g><path d="M 191 29 L 191 76" fill="none" stroke="#000000" stroke-miterlimit="10" pointer-events="stroke"/><ellipse cx="191" cy="26" rx="3" ry="3" fill="none" stroke="#000000" pointer-events="all"/><g transform="translate(-0.5 -0.5)"><switch><foreignObject style="overflow: visible; text-align: left;" pointer-events="none" width="100%" height="100%" requiredFeatures="http://www.w3.org/TR/SVG11/feature#Extensibility"><div xmlns="http://www.w3.org/1999/xhtml" style="display: flex; align-items: unsafe flex-end; justify-content: unsafe center; width: 1px; height: 1px; padding-top: 13px; margin-left: 191px;"><div style="box-sizing: border-box; font-size: 0; text-align: center; "><div style="display: inline-block; font-size: 11px; font-family: Helvetica; color: #000000; line-height: 1.2; pointer-events: all; background-color: #ffffff; white-space: nowrap; ">11</div></div></div></foreignObject><text x="191" y="13" fill="#000000" font-family="Helvetica" font-size="11px" text-anchor="middle">11</text></switch></g><path d="M 211.76 29 L 211.76 76" fill="none" stroke="#000000" stroke-miterlimit="10" pointer-events="stroke"/><ellipse cx="211.76" cy="26" rx="3" ry="3" fill="none" stroke="#000000" pointer-events="all"/><g transform="translate(-0.5 -0.5)"><switch><foreignObject style="overflow: visible; text-align: left;" pointer-events="none" width="100%" height="100%" requiredFeatures="http://www.w3.org/TR/SVG11/feature#Extensibility"><div xmlns="http://www.w3.org/1999/xhtml" style="display: flex; align-items: unsafe flex-end; justify-content: unsafe center; width: 1px; height: 1px; padding-top: 13px; margin-left: 212px;"><div style="box-sizing: border-box; font-size: 0; text-align: center; "><div style="display: inline-block; font-size: 11px; font-family: Helvetica; color: #000000; line-height: 1.2; pointer-events: all; background-color: #ffffff; white-space: nowrap; ">10</div></div></div></foreignObject><text x="212" y="13" fill="#000000" font-family="Helvetica" font-size="11px" text-anchor="middle">10</text></switch></g><path d="M 231 29 L 231 76" fill="none" stroke="#000000" stroke-miterlimit="10" pointer-events="stroke"/><ellipse cx="231" cy="26" rx="3" ry="3" fill="none" stroke="#000000" pointer-events="all"/><g transform="translate(-0.5 -0.5)"><switch><foreignObject style="overflow: visible; text-align: left;" pointer-events="none" width="100%" height="100%" requiredFeatures="http://www.w3.org/TR/SVG11/feature#Extensibility"><div xmlns="http://www.w3.org/1999/xhtml" style="display: flex; align-items: unsafe flex-end; justify-content: unsafe center; width: 1px; height: 1px; padding-top: 13px; margin-left: 231px;"><div style="box-sizing: border-box; font-size: 0; text-align: center; "><div style="display: inline-block; font-size: 11px; font-family: Helvetica; color: #000000; line-height: 1.2; pointer-events: all; background-color: #ffffff; white-space: nowrap; ">9</div></div></div></foreignObject><text x="231" y="13" fill="#000000" font-family="Helvetica" font-size="11px" text-anchor="middle">9</text></switch></g><path d="M 251 29 L 251 76" fill="none" stroke="#000000" stroke-miterlimit="10" pointer-events="stroke"/><ellipse cx="251" cy="26" rx="3" ry="3" fill="none" stroke="#000000" pointer-events="all"/><g transform="translate(-0.5 -0.5)"><switch><foreignObject style="overflow: visible; text-align: left;" pointer-events="none" width="100%" height="100%" requiredFeatures="http://www.w3.org/TR/SVG11/feature#Extensibility"><div xmlns="http://www.w3.org/1999/xhtml" style="display: flex; align-items: unsafe flex-end; justify-content: unsafe center; width: 1px; height: 1px; padding-top: 13px; margin-left: 251px;"><div style="box-sizing: border-box; font-size: 0; text-align: center; "><div style="display: inline-block; font-size: 11px; font-family: Helvetica; color: #000000; line-height: 1.2; pointer-events: all; background-color: #ffffff; white-space: nowrap; ">8</div></div></div></foreignObject><text x="251" y="13" fill="#000000" font-family="Helvetica" font-size="11px" text-anchor="middle">8</text></switch></g><rect x="1" y="76" width="410" height="140" fill="none" stroke="#000000" stroke-width="2" pointer-events="all"/><rect x="21" y="96" width="79.8" height="96.9" fill="none" stroke="none" pointer-events="all"/><path d="M 41.2 103 L 49.5 96 L 80.3 96 L 86.6 102.9 L 78.2 110 L 47.6 110 Z M 89.3 105.6 L 95.7 112.4 L 92.8 134.2 L 84.3 141.4 L 77.8 134.5 L 80.8 112.5 Z M 83.6 146.8 L 90.2 153.7 L 87.2 175.6 L 78.7 182.6 L 72.3 175.7 L 75.2 153.8 Z M 69.2 178.2 L 75.6 185.2 L 67.4 192.1 L 36.4 192.1 L 30 185.3 L 38.4 178.2 Z M 38.7 153.7 L 35.8 175.6 L 27.4 182.6 L 21 175.8 L 24 153.8 L 32.4 146.8 Z M 81.1 143.9 L 72.8 150.9 L 41.8 150.9 L 35.5 143.9 L 44.1 136.9 L 75 136.9 Z M 44.4 112.4 L 41.4 134.4 L 33 141.4 L 26.6 134.6 L 29.6 112.4 L 38 105.6 Z" fill="#ffffff" stroke="#000000" stroke-miterlimit="10" pointer-events="all"/><ellipse cx="94.8" cy="186.9" rx="6" ry="6" fill="#ffffff" stroke="#000000" pointer-events="all"/><rect x="121" y="96" width="79.8" height="96.9" fill="none" stroke="none" pointer-events="all"/><path d="M 141.2 103 L 149.5 96 L 180.3 96 L 186.6 102.9 L 178.2 110 L 147.6 110 Z M 189.3 105.6 L 195.7 112.4 L 192.8 134.2 L 184.3 141.4 L 177.8 134.5 L 180.8 112.5 Z M 183.6 146.8 L 190.2 153.7 L 187.2 175.6 L 178.7 182.6 L 172.3 175.7 L 175.2 153.8 Z M 169.2 178.2 L 175.6 185.2 L 167.4 192.1 L 136.4 192.1 L 130 185.3 L 138.4 178.2 Z M 138.7 153.7 L 135.8 175.6 L 127.4 182.6 L 121 175.8 L 124 153.8 L 132.4 146.8 Z M 181.1 143.9 L 172.8 150.9 L 141.8 150.9 L 135.5 143.9 L 144.1 136.9 L 175 136.9 Z M 144.4 112.4 L 141.4 134.4 L 133 141.4 L 126.6 134.6 L 129.6 112.4 L 138 105.6 Z" fill="#ffffff" stroke="#000000" stroke-miterlimit="10" pointer-events="all"/><ellipse cx="194.8" cy="186.9" rx="6" ry="6" fill="#ffffff" stroke="#000000" pointer-events="all"/><rect x="321" y="96" width="79.8" height="96.9" fill="none" stroke="none" pointer-events="all"/><path d="M 341.2 103 L 349.5 96 L 380.3 96 L 386.6 102.9 L 378.2 110 L 347.6 110 Z M 389.3 105.6 L 395.7 112.4 L 392.8 134.2 L 384.3 141.4 L 377.8 134.5 L 380.8 112.5 Z M 383.6 146.8 L 390.2 153.7 L 387.2 175.6 L 378.7 182.6 L 372.3 175.7 L 375.2 153.8 Z M 369.2 178.2 L 375.6 185.2 L 367.4 192.1 L 336.4 192.1 L 330 185.3 L 338.4 178.2 Z M 338.7 153.7 L 335.8 175.6 L 327.4 182.6 L 321 175.8 L 324 153.8 L 332.4 146.8 Z M 381.1 143.9 L 372.8 150.9 L 341.8 150.9 L 335.5 143.9 L 344.1 136.9 L 375 136.9 Z M 344.4 112.4 L 341.4 134.4 L 333 141.4 L 326.6 134.6 L 329.6 112.4 L 338 105.6 Z" fill="#ffffff" stroke="#000000" stroke-miterlimit="10" pointer-events="all"/><ellipse cx="394.8" cy="186.9" rx="6" ry="6" fill="#ffffff" stroke="#000000" pointer-events="all"/><rect x="221" y="96" width="79.8" height="96.9" fill="none" stroke="none" pointer-events="all"/><path d="M 241.2 103 L 249.5 96 L 280.3 96 L 286.6 102.9 L 278.2 110 L 247.6 110 Z M 289.3 105.6 L 295.7 112.4 L 292.8 134.2 L 284.3 141.4 L 277.8 134.5 L 280.8 112.5 Z M 283.6 146.8 L 290.2 153.7 L 287.2 175.6 L 278.7 182.6 L 272.3 175.7 L 275.2 153.8 Z M 269.2 178.2 L 275.6 185.2 L 267.4 192.1 L 236.4 192.1 L 230 185.3 L 238.4 178.2 Z M 238.7 153.7 L 235.8 175.6 L 227.4 182.6 L 221 175.8 L 224 153.8 L 232.4 146.8 Z M 281.1 143.9 L 272.8 150.9 L 241.8 150.9 L 235.5 143.9 L 244.1 136.9 L 275 136.9 Z M 244.4 112.4 L 241.4 134.4 L 233 141.4 L 226.6 134.6 L 229.6 112.4 L 238 105.6 Z" fill="#ffffff" stroke="#000000" stroke-miterlimit="10" pointer-events="all"/><ellipse cx="294.8" cy="186.9" rx="6" ry="6" fill="#ffffff" stroke="#000000" pointer-events="all"/><ellipse cx="212" cy="124" rx="6" ry="6" fill="none" stroke="#000000" pointer-events="all"/><ellipse cx="209" cy="164" rx="6" ry="6" fill="none" stroke="#000000" pointer-events="all"/></g><switch><g requiredFeatures="http://www.w3.org/TR/SVG11/feature#Extensibility"/><a transform="translate(0,-5)" xlink:href="https://desk.draw.io/support/solutions/articles/16000042487" target="_blank"><text text-anchor="middle" font-size="10px" x="50%" y="100%">Viewer does not support full SVG 1.1</text></a></switch></svg>