<?xml version="1.0" encoding="UTF-8"?>
<!DOCTYPE svg PUBLIC "-//W3C//DTD SVG 1.1//EN" "http://www.w3.org/Graphics/SVG/1.1/DTD/svg11.dtd">
<svg xmlns="http://www.w3.org/2000/svg" xmlns:xlink="http://www.w3.org/1999/xlink" version="1.1" width="383px" height="381px" viewBox="-0.5 -0.5 383 381" content="&lt;mxfile host=&quot;app.diagrams.net&quot; modified=&quot;2020-05-23T04:17:15.087Z&quot; agent=&quot;5.0 (Macintosh; Intel Mac OS X 10_14_6) AppleWebKit/537.36 (KHTML, like Gecko) Chrome/81.0.4044.138 Safari/537.36&quot; etag=&quot;GH8tzkI5YU1rjkl0WOkV&quot; version=&quot;13.1.0&quot; type=&quot;device&quot;&gt;&lt;diagram id=&quot;yTyFCVuXmifApqhadQWr&quot; name=&quot;Page-1&quot;&gt;7Vpbc6M2FP41eSyDBFjwGF82O9NsmxlPp5unjGIUrC5GVMix3V9fCSTujp3Eju3d+IGxjm7wfeeTDkdcOaPF+objdP6NhSS+gna4vnLGVxAi35VXZdgUBhc5hSHiNCxMoDJM6X9EG21tXdKQZI2GgrFY0LRpnLEkITPRsGHO2arZ7InFzVlTHJGOYTrDcdf6Nw3FvLD6EFX2r4RGczMzGARFzQKbxvpJsjkO2apmciZXzogzJop/i/WIxAo7g0vR78uW2vLGOEnEPh1o5t+v3B+/f30i+M8/vt8Gyb83vwE9zDOOl/qJ9d2KjYEg4myZdmczPQkXZN3HBX40I1SPK92EsAURfCPbmV4GIe0i0NXlVQW4p03zOtamH9YcR+XQFQzyj0biFajA3aDIUaQLysJwNaeCTFM8UzUrKQJpm4uFnHAM5F+cpYVfPtE1kZMOu0i+zEwb3604eg0UQRdEtwdE91gYOj8BhujEGKLdGEptJqHCZGzvxjETnP0o1zEJw/CJxvGIxYzLcsISchRsT6ZjEJx+dYNOc3Xr8Sk4cCwPdYEJjobLHgvc6Rwr2AL9i4718RjuscCpR6AylrjFjyS+YxkVlCWy6pEJwRYKNxMTKIxDnM1LwHFMI9V0JsEivIm2GfZatxEsLcZK1byLdaQiMYvE0ku5amexVLCHoswSOsss9JCRaCGHfghplsZ487CiYv4QqnFSRtWUk2dZnekZD09dufdbvods5AB98ZubWF4NXGiufjcyABYMAgRB4IH80vWBAZRNYDWQdyyXcD9d4v0ugZAleXKdwNaXS/YI79Mj3u8R0PYsBMolAjnwkl1i8OkSB9g3XGC5EPm26+eXi9429gjz3/6q1AzNwEeFZqbWARbym29VEFl24+d22EEWauwBXpedLU0Oz47/E7MDAymUQQXioEGUB626iEoFnCdRJlCo8xJGZKqLjIs5i1iC40llHTbfcqo2t0ytjTkh/xAhNjoxiZeCNRklayq+q+6Wp0v3tZrxWo+cFzamkMjnrXVSxft6XdUtL5l+XT/Qq1bGlnxGXsJGvwUJzCPykg+ZERVyL3oQJzEW9LmZJT08p3ZHfIo9aRkTIZUkVXKK99ZXp5XaSYAyKVyTErB7ciPe0VKc6KRqqWmlUs4OtYCGVizkHU8u5qRhl1zQeanFPyWn4C2c2k1Oz4BSs72fC6fdA5oxzQROZmoV/EZwtuREReSXuRA6sBtTfPBCGJxP2GDvKZpm2ACOJxq4r2ic8xJNN789pAnO70AyAe3haHwZenH8c9OLEfCnXrbLYKdezAHMueile5YxLvI7KtLmcv4LibPbcjmDOHtwKTHZ290e7btL2If2+rzrNee5o5oGeSIyq418pwy1rAdqOYnf+nCm1R7a72zvei03Ku64cqry0d+xLO9x9nR4yZap5/5k7+vDQ9CCzu45LQ969Fs2PPx+1z3C+SsWHGcqIy7tU5JkPWkI+cCiD9AWgD2YdjL47bT9goZhvC3Z2OT40PyA1gcyffz0fSFztC88nO5pypQ8kyQnJirei+zbyVjtY2ZH+yWYgq2dsOebOjD4UKa6pxx0NFG3ZX+5u7n+RWhx7DYtewYob+BFFquvS4t9pvpE15n8Dw==&lt;/diagram&gt;&lt;/mxfile&gt;" style="background-color: rgb(255, 255, 255);"><defs/><g><ellipse cx="27" cy="230" rx="20" ry="20" fill="#ffffff" stroke="#000000" pointer-events="all"/><ellipse cx="27" cy="290" rx="20" ry="20" fill="#ffffff" stroke="#000000" pointer-events="all"/><rect x="2" y="200" width="50" height="120" fill="none" stroke="#000000" stroke-width="2" pointer-events="all"/><rect x="112" y="30" width="263.57" height="90" fill="none" stroke="#000000" stroke-width="2" pointer-events="all"/><rect x="124.86" y="42.86" width="51.3" height="62.29" fill="none" stroke="none" pointer-events="all"/><path d="M 137.84 47.36 L 143.18 42.86 L 162.98 42.86 L 167.03 47.29 L 161.63 51.86 L 141.96 51.86 Z M 168.76 49.03 L 172.88 53.4 L 171.01 67.41 L 165.55 72.04 L 161.37 67.61 L 163.3 53.46 Z M 165.1 75.51 L 169.34 79.95 L 167.41 94.03 L 161.95 98.53 L 157.84 94.09 L 159.7 80.01 Z M 155.84 95.7 L 159.96 100.2 L 154.69 104.64 L 134.76 104.64 L 130.64 100.26 L 136.04 95.7 Z M 136.24 79.95 L 134.37 94.03 L 128.97 98.53 L 124.86 94.16 L 126.79 80.01 L 132.19 75.51 Z M 163.49 73.65 L 158.16 78.15 L 138.23 78.15 L 134.18 73.65 L 139.71 69.15 L 159.57 69.15 Z M 139.9 53.4 L 137.97 67.54 L 132.57 72.04 L 128.46 67.67 L 130.39 53.4 L 135.79 49.03 Z" fill="#ffffff" stroke="#000000" stroke-miterlimit="10" pointer-events="all"/><ellipse cx="172.3" cy="101.29" rx="3.8571219512195123" ry="3.8571428571428577" fill="#ffffff" stroke="#000000" pointer-events="all"/><rect x="189.14" y="42.86" width="51.3" height="62.29" fill="none" stroke="none" pointer-events="all"/><path d="M 202.13 47.36 L 207.46 42.86 L 227.26 42.86 L 231.31 47.29 L 225.91 51.86 L 206.24 51.86 Z M 233.05 49.03 L 237.16 53.4 L 235.3 67.41 L 229.84 72.04 L 225.66 67.61 L 227.59 53.46 Z M 229.39 75.51 L 233.63 79.95 L 231.7 94.03 L 226.24 98.53 L 222.12 94.09 L 223.99 80.01 Z M 220.13 95.7 L 224.24 100.2 L 218.97 104.64 L 199.04 104.64 L 194.93 100.26 L 200.33 95.7 Z M 200.52 79.95 L 198.66 94.03 L 193.26 98.53 L 189.14 94.16 L 191.07 80.01 L 196.47 75.51 Z M 227.78 73.65 L 222.44 78.15 L 202.51 78.15 L 198.46 73.65 L 203.99 69.15 L 223.86 69.15 Z M 204.19 53.4 L 202.26 67.54 L 196.86 72.04 L 192.74 67.67 L 194.67 53.4 L 200.07 49.03 Z" fill="#ffffff" stroke="#000000" stroke-miterlimit="10" pointer-events="all"/><ellipse cx="236.59" cy="101.29" rx="3.8571219512195123" ry="3.8571428571428577" fill="#ffffff" stroke="#000000" pointer-events="all"/><rect x="317.71" y="42.86" width="51.3" height="62.29" fill="none" stroke="none" pointer-events="all"/><path d="M 330.7 47.36 L 336.03 42.86 L 355.83 42.86 L 359.88 47.29 L 354.48 51.86 L 334.81 51.86 Z M 361.62 49.03 L 365.73 53.4 L 363.87 67.41 L 358.41 72.04 L 354.23 67.61 L 356.16 53.46 Z M 357.96 75.51 L 362.2 79.95 L 360.27 94.03 L 354.81 98.53 L 350.69 94.09 L 352.56 80.01 Z M 348.7 95.7 L 352.81 100.2 L 347.54 104.64 L 327.61 104.64 L 323.5 100.26 L 328.9 95.7 Z M 329.09 79.95 L 327.23 94.03 L 321.83 98.53 L 317.71 94.16 L 319.64 80.01 L 325.04 75.51 Z M 356.35 73.65 L 351.01 78.15 L 331.08 78.15 L 327.03 73.65 L 332.56 69.15 L 352.43 69.15 Z M 332.76 53.4 L 330.83 67.54 L 325.43 72.04 L 321.31 67.67 L 323.24 53.4 L 328.64 49.03 Z" fill="#ffffff" stroke="#000000" stroke-miterlimit="10" pointer-events="all"/><ellipse cx="365.16" cy="101.29" rx="3.8571219512195123" ry="3.8571428571428577" fill="#ffffff" stroke="#000000" pointer-events="all"/><rect x="253.43" y="42.86" width="51.3" height="62.29" fill="none" stroke="none" pointer-events="all"/><path d="M 266.41 47.36 L 271.75 42.86 L 291.55 42.86 L 295.6 47.29 L 290.2 51.86 L 270.53 51.86 Z M 297.33 49.03 L 301.45 53.4 L 299.58 67.41 L 294.12 72.04 L 289.94 67.61 L 291.87 53.46 Z M 293.67 75.51 L 297.91 79.95 L 295.98 94.03 L 290.52 98.53 L 286.41 94.09 L 288.27 80.01 Z M 284.41 95.7 L 288.53 100.2 L 283.26 104.64 L 263.33 104.64 L 259.21 100.26 L 264.61 95.7 Z M 264.81 79.95 L 262.94 94.03 L 257.54 98.53 L 253.43 94.16 L 255.36 80.01 L 260.76 75.51 Z M 292.06 73.65 L 286.73 78.15 L 266.8 78.15 L 262.75 73.65 L 268.28 69.15 L 288.14 69.15 Z M 268.47 53.4 L 266.54 67.54 L 261.14 72.04 L 257.03 67.67 L 258.96 53.4 L 264.36 49.03 Z" fill="#ffffff" stroke="#000000" stroke-miterlimit="10" pointer-events="all"/><ellipse cx="300.87" cy="101.29" rx="3.8571219512195123" ry="3.8571428571428577" fill="#ffffff" stroke="#000000" pointer-events="all"/><ellipse cx="247.64" cy="60.86" rx="3.8571219512195123" ry="3.8571219512195123" fill="none" stroke="#000000" pointer-events="all"/><ellipse cx="245.71" cy="86.57" rx="3.8571219512195123" ry="3.8571219512195123" fill="none" stroke="#000000" pointer-events="all"/><path d="M 162 230 L 162 278.63" fill="none" stroke="#000000" stroke-miterlimit="10" pointer-events="stroke"/><path d="M 162 283.88 L 158.5 276.88 L 162 278.63 L 165.5 276.88 Z" fill="#000000" stroke="#000000" stroke-miterlimit="10" pointer-events="all"/><rect x="112" y="180" width="100" height="50" fill="none" stroke="#000000" stroke-width="2" pointer-events="all"/><g transform="translate(-0.5 -0.5)"><switch><foreignObject style="overflow: visible; text-align: left;" pointer-events="none" width="100%" height="100%" requiredFeatures="http://www.w3.org/TR/SVG11/feature#Extensibility"><div xmlns="http://www.w3.org/1999/xhtml" style="display: flex; align-items: unsafe center; justify-content: unsafe center; width: 98px; height: 1px; padding-top: 205px; margin-left: 113px;"><div style="box-sizing: border-box; font-size: 0; text-align: center; "><div style="display: inline-block; font-size: 12px; font-family: Helvetica; color: #000000; line-height: 1.2; pointer-events: all; white-space: normal; word-wrap: normal; ">Edge Detector</div></div></div></foreignObject><text x="162" y="209" fill="#000000" font-family="Helvetica" font-size="12px" text-anchor="middle">Edge Detector</text></switch></g><path d="M 112 310 L 82 310 L 82 290 L 58.37 290" fill="none" stroke="#000000" stroke-miterlimit="10" pointer-events="stroke"/><path d="M 53.12 290 L 60.12 286.5 L 58.37 290 L 60.12 293.5 Z" fill="#000000" stroke="#000000" stroke-miterlimit="10" pointer-events="all"/><path d="M 212 310 L 255.63 310" fill="none" stroke="#000000" stroke-miterlimit="10" pointer-events="stroke"/><path d="M 260.88 310 L 253.88 313.5 L 255.63 310 L 253.88 306.5 Z" fill="#000000" stroke="#000000" stroke-miterlimit="10" pointer-events="all"/><rect x="112" y="285" width="100" height="50" fill="none" stroke="#000000" stroke-width="2" pointer-events="all"/><g transform="translate(-0.5 -0.5)"><switch><foreignObject style="overflow: visible; text-align: left;" pointer-events="none" width="100%" height="100%" requiredFeatures="http://www.w3.org/TR/SVG11/feature#Extensibility"><div xmlns="http://www.w3.org/1999/xhtml" style="display: flex; align-items: unsafe center; justify-content: unsafe center; width: 98px; height: 1px; padding-top: 310px; margin-left: 113px;"><div style="box-sizing: border-box; font-size: 0; text-align: center; "><div style="display: inline-block; font-size: 12px; font-family: Helvetica; color: #000000; line-height: 1.2; pointer-events: all; white-space: normal; word-wrap: normal; ">Distance Measurement</div></div></div></foreignObject><text x="162" y="314" fill="#000000" font-family="Helvetica" font-size="12px" text-anchor="middle">Distance Measure...</text></switch></g><path d="M 312 285 L 312 236.37" fill="none" stroke="#000000" stroke-miterlimit="10" pointer-events="stroke"/><path d="M 312 231.12 L 315.5 238.12 L 312 236.37 L 308.5 238.12 Z" fill="#000000" stroke="#000000" stroke-miterlimit="10" pointer-events="all"/><rect x="262" y="285" width="100" height="50" fill="none" stroke="#000000" stroke-width="2" pointer-events="all"/><g transform="translate(-0.5 -0.5)"><switch><foreignObject style="overflow: visible; text-align: left;" pointer-events="none" width="100%" height="100%" requiredFeatures="http://www.w3.org/TR/SVG11/feature#Extensibility"><div xmlns="http://www.w3.org/1999/xhtml" style="display: flex; align-items: unsafe center; justify-content: unsafe center; width: 98px; height: 1px; padding-top: 310px; margin-left: 263px;"><div style="box-sizing: border-box; font-size: 0; text-align: center; "><div style="display: inline-block; font-size: 12px; font-family: Helvetica; color: #000000; line-height: 1.2; pointer-events: all; white-space: normal; word-wrap: normal; ">Binary to BCD</div></div></div></foreignObject><text x="312" y="314" fill="#000000" font-family="Helvetica" font-size="12px" text-anchor="middle">Binary to BCD</text></switch></g><path d="M 312 180 L 312 150 L 243.8 150 L 243.79 126.37" fill="none" stroke="#000000" stroke-miterlimit="10" pointer-events="stroke"/><path d="M 243.79 121.12 L 247.29 128.12 L 243.79 126.37 L 240.29 128.12 Z" fill="#000000" stroke="#000000" stroke-miterlimit="10" pointer-events="all"/><rect x="262" y="180" width="100" height="50" fill="none" stroke="#000000" stroke-width="2" pointer-events="all"/><g transform="translate(-0.5 -0.5)"><switch><foreignObject style="overflow: visible; text-align: left;" pointer-events="none" width="100%" height="100%" requiredFeatures="http://www.w3.org/TR/SVG11/feature#Extensibility"><div xmlns="http://www.w3.org/1999/xhtml" style="display: flex; align-items: unsafe center; justify-content: unsafe center; width: 98px; height: 1px; padding-top: 205px; margin-left: 263px;"><div style="box-sizing: border-box; font-size: 0; text-align: center; "><div style="display: inline-block; font-size: 12px; font-family: Helvetica; color: #000000; line-height: 1.2; pointer-events: all; white-space: normal; word-wrap: normal; ">Display Driver</div></div></div></foreignObject><text x="312" y="209" fill="#000000" font-family="Helvetica" font-size="12px" text-anchor="middle">Display Driver</text></switch></g><path d="M 52 260 L 52 240 L 82 240 L 82 205 L 105.63 205" fill="none" stroke="#000000" stroke-miterlimit="10" pointer-events="stroke"/><path d="M 110.88 205 L 103.88 208.5 L 105.63 205 L 103.88 201.5 Z" fill="#000000" stroke="#000000" stroke-miterlimit="10" pointer-events="all"/><rect x="92" y="160" width="290" height="200" fill="none" stroke="#000000" stroke-width="2" stroke-dasharray="6 6" pointer-events="all"/><rect x="7" y="160" width="40" height="20" fill="none" stroke="none" pointer-events="all"/><g transform="translate(-0.5 -0.5)"><switch><foreignObject style="overflow: visible; text-align: left;" pointer-events="none" width="100%" height="100%" requiredFeatures="http://www.w3.org/TR/SVG11/feature#Extensibility"><div xmlns="http://www.w3.org/1999/xhtml" style="display: flex; align-items: unsafe center; justify-content: unsafe center; width: 38px; height: 1px; padding-top: 170px; margin-left: 8px;"><div style="box-sizing: border-box; font-size: 0; text-align: center; "><div style="display: inline-block; font-size: 12px; font-family: Helvetica; color: #000000; line-height: 1.2; pointer-events: all; white-space: normal; word-wrap: normal; ">Ultrasonic Sensor</div></div></div></foreignObject><text x="27" y="174" fill="#000000" font-family="Helvetica" font-size="12px" text-anchor="middle">Ultras...</text></switch></g><rect x="162" y="0" width="160" height="20" fill="none" stroke="none" pointer-events="all"/><g transform="translate(-0.5 -0.5)"><switch><foreignObject style="overflow: visible; text-align: left;" pointer-events="none" width="100%" height="100%" requiredFeatures="http://www.w3.org/TR/SVG11/feature#Extensibility"><div xmlns="http://www.w3.org/1999/xhtml" style="display: flex; align-items: unsafe center; justify-content: unsafe center; width: 158px; height: 1px; padding-top: 10px; margin-left: 163px;"><div style="box-sizing: border-box; font-size: 0; text-align: center; "><div style="display: inline-block; font-size: 12px; font-family: Helvetica; color: #000000; line-height: 1.2; pointer-events: all; white-space: normal; word-wrap: normal; ">Seven Segment LED Display</div></div></div></foreignObject><text x="242" y="14" fill="#000000" font-family="Helvetica" font-size="12px" text-anchor="middle">Seven Segment LED Display</text></switch></g><rect x="182" y="360" width="100" height="20" fill="none" stroke="none" pointer-events="all"/><g transform="translate(-0.5 -0.5)"><switch><foreignObject style="overflow: visible; text-align: left;" pointer-events="none" width="100%" height="100%" requiredFeatures="http://www.w3.org/TR/SVG11/feature#Extensibility"><div xmlns="http://www.w3.org/1999/xhtml" style="display: flex; align-items: unsafe center; justify-content: unsafe center; width: 98px; height: 1px; padding-top: 370px; margin-left: 183px;"><div style="box-sizing: border-box; font-size: 0; text-align: center; "><div style="display: inline-block; font-size: 12px; font-family: Helvetica; color: #000000; line-height: 1.2; pointer-events: all; white-space: normal; word-wrap: normal; ">iCE40 FPGA</div></div></div></foreignObject><text x="232" y="374" fill="#000000" font-family="Helvetica" font-size="12px" text-anchor="middle">iCE40 FPGA</text></switch></g></g><switch><g requiredFeatures="http://www.w3.org/TR/SVG11/feature#Extensibility"/><a transform="translate(0,-5)" xlink:href="https://desk.draw.io/support/solutions/articles/16000042487" target="_blank"><text text-anchor="middle" font-size="10px" x="50%" y="100%">Viewer does not support full SVG 1.1</text></a></switch>
  <text class="electronut-credit" x="374.5" y="372.5" text-anchor="end" font-family="monospace, sans-serif" font-size="9" fill="#9ca3af" opacity="0.8">© Electronut Labs</text>
</svg>