<svg viewBox="0 0 720 590" xmlns="http://www.w3.org/2000/svg" font-family="monospace, sans-serif">

  <defs>
    <marker id="arrG" markerWidth="10" markerHeight="10" refX="7" refY="3" orient="auto">
      <path d="M0,0 L8,3 L0,6 Z" fill="#34d399"/>
    </marker>
    <marker id="arrB" markerWidth="10" markerHeight="10" refX="7" refY="3" orient="auto">
      <path d="M0,0 L8,3 L0,6 Z" fill="#60a5fa"/>
    </marker>
    <marker id="arrA" markerWidth="10" markerHeight="10" refX="7" refY="3" orient="auto">
      <path d="M0,0 L8,3 L0,6 Z" fill="#fbbf24"/>
    </marker>
    <marker id="arrP" markerWidth="10" markerHeight="10" refX="7" refY="3" orient="auto">
      <path d="M0,0 L8,3 L0,6 Z" fill="#a78bfa"/>
    </marker>
  </defs>

  <!-- Background -->
  <rect width="720" height="590" fill="#0f1117" rx="10"/>

  <!-- Title -->
  <text x="360" y="30" text-anchor="middle" fill="#e2e8f0" font-size="16" font-weight="bold">Humble iCE (ver 0.4) — Block Diagram</text>
  <text x="360" y="50" text-anchor="middle" fill="#34d399" font-size="11">Lattice iCE40UP5K FPGA · Raspberry Pi RP2040 programmer &amp; clock source</text>

  <!-- USB-C (J1) -->
  <rect x="90" y="70" width="120" height="36" rx="6" fill="#1e293b" stroke="#60a5fa" stroke-width="2"/>
  <text x="150" y="93" text-anchor="middle" fill="#93c5fd" font-size="12" font-weight="bold">USB-C (J1)</text>
  <line x1="150" y1="106" x2="150" y2="138" stroke="#60a5fa" stroke-width="2" marker-end="url(#arrB)"/>

  <!-- RP2040 (U3) -->
  <rect x="60" y="140" width="170" height="120" rx="6" fill="#1e293b" stroke="#34d399" stroke-width="2"/>
  <text x="145" y="172" text-anchor="middle" fill="#e2e8f0" font-size="15" font-weight="bold">RP2040</text>
  <text x="145" y="190" text-anchor="middle" fill="#94a3b8" font-size="11">(U3)</text>
  <text x="145" y="216" text-anchor="middle" fill="#94a3b8" font-size="10">USB programmer</text>
  <text x="145" y="232" text-anchor="middle" fill="#94a3b8" font-size="10">+ 12 MHz clock</text>

  <!-- iCE40UP5K (U5) -->
  <rect x="490" y="140" width="175" height="130" rx="6" fill="#1e293b" stroke="#34d399" stroke-width="2"/>
  <text x="577" y="176" text-anchor="middle" fill="#e2e8f0" font-size="15" font-weight="bold">iCE40UP5K</text>
  <text x="577" y="194" text-anchor="middle" fill="#94a3b8" font-size="11">(U5) · FPGA</text>
  <text x="577" y="224" text-anchor="middle" fill="#94a3b8" font-size="10">core @ 1.2 V</text>
  <text x="577" y="240" text-anchor="middle" fill="#94a3b8" font-size="10">I/O @ 3.3 V</text>

  <!-- Signal arrows RP2040 -> iCE40 -->
  <text x="234" y="160" fill="#34d399" font-size="9">SPI · GP3–6 (MOSI/MISO/SS/SCK)</text>
  <line x1="230" y1="166" x2="488" y2="166" stroke="#34d399" stroke-width="2" marker-end="url(#arrG)"/>

  <text x="234" y="188" fill="#34d399" font-size="9">GP14 ~CRESET · GP15 CDONE</text>
  <line x1="230" y1="194" x2="488" y2="194" stroke="#34d399" stroke-width="2" marker-end="url(#arrG)"/>

  <text x="234" y="216" fill="#34d399" font-size="9">GP21 → 12 MHz clock</text>
  <line x1="230" y1="222" x2="488" y2="222" stroke="#34d399" stroke-width="2" marker-end="url(#arrG)"/>

  <text x="234" y="244" fill="#34d399" font-size="9">GP12/13 → UART TX/RX</text>
  <line x1="230" y1="250" x2="488" y2="250" stroke="#34d399" stroke-width="2" marker-end="url(#arrG)"/>

  <!-- QSPI down to flash -->
  <line x1="145" y1="260" x2="145" y2="313" stroke="#fbbf24" stroke-width="2" marker-end="url(#arrA)"/>
  <text x="152" y="288" fill="#94a3b8" font-size="9">QSPI (internal)</text>

  <!-- Flash W25Q32 (U4) -->
  <rect x="55" y="315" width="360" height="94" rx="6" fill="#1e293b" stroke="#fbbf24" stroke-width="2"/>
  <text x="235" y="340" text-anchor="middle" fill="#fbbf24" font-size="12" font-weight="bold">W25Q32 (U4) · 4 MB flash (shared)</text>
  <line x1="72" y1="352" x2="398" y2="352" stroke="#334155" stroke-width="1"/>
  <text x="72" y="372" fill="#e2e8f0" font-size="10">0x000000–0x1DFFFF</text>
  <text x="210" y="372" fill="#94a3b8" font-size="10">RP2040 firmware (1920 KB)</text>
  <text x="72" y="394" fill="#e2e8f0" font-size="10">0x1E0000–0x1FFFFF</text>
  <text x="210" y="394" fill="#94a3b8" font-size="10">FPGA bitstream (128 KB)</text>

  <!-- Divider -->
  <line x1="20" y1="432" x2="700" y2="432" stroke="#334155" stroke-width="1" stroke-dasharray="4 4"/>
  <text x="24" y="454" fill="#a78bfa" font-size="12" font-weight="bold">POWER</text>

  <!-- VBUS -->
  <rect x="40" y="472" width="120" height="46" rx="6" fill="#1e293b" stroke="#a78bfa" stroke-width="2"/>
  <text x="100" y="493" text-anchor="middle" fill="#c4b5fd" font-size="12" font-weight="bold">USB VBUS</text>
  <text x="100" y="509" text-anchor="middle" fill="#94a3b8" font-size="10">5 V</text>

  <line x1="160" y1="495" x2="198" y2="495" stroke="#a78bfa" stroke-width="2" marker-end="url(#arrP)"/>

  <!-- D1 -->
  <rect x="200" y="472" width="150" height="46" rx="6" fill="#1e293b" stroke="#a78bfa" stroke-width="2"/>
  <text x="275" y="493" text-anchor="middle" fill="#c4b5fd" font-size="12" font-weight="bold">STPS2L40AF</text>
  <text x="275" y="509" text-anchor="middle" fill="#94a3b8" font-size="9">D1 · reverse/OV protection</text>

  <!-- Branch from D1 to two rails -->
  <polyline points="350,495 372,495 372,468 398,468" fill="none" stroke="#a78bfa" stroke-width="2" marker-end="url(#arrP)"/>
  <polyline points="350,495 372,495 372,522 398,522" fill="none" stroke="#a78bfa" stroke-width="2" marker-end="url(#arrP)"/>

  <!-- 3.3 V rail -->
  <rect x="400" y="448" width="150" height="40" rx="6" fill="#1e293b" stroke="#a78bfa" stroke-width="2"/>
  <text x="475" y="466" text-anchor="middle" fill="#c4b5fd" font-size="12" font-weight="bold">3.3 V · NCP115 (U2)</text>
  <text x="475" y="480" text-anchor="middle" fill="#94a3b8" font-size="9">RP2040, I/O, flash, LEDs</text>

  <!-- 1.2 V rail -->
  <rect x="400" y="502" width="150" height="40" rx="6" fill="#1e293b" stroke="#a78bfa" stroke-width="2"/>
  <text x="475" y="520" text-anchor="middle" fill="#c4b5fd" font-size="12" font-weight="bold">1.2 V · NCP114 (U1)</text>
  <text x="475" y="534" text-anchor="middle" fill="#94a3b8" font-size="9">iCE40 core</text>

  <!-- Rails to iCE40 core note -->
  <line x1="550" y1="522" x2="600" y2="522" stroke="#a78bfa" stroke-width="2" marker-end="url(#arrP)"/>
  <text x="608" y="519" fill="#94a3b8" font-size="10">iCE40</text>
  <text x="608" y="531" fill="#94a3b8" font-size="10">core</text>

</svg>
