<svg viewBox="0 0 700 320" xmlns="http://www.w3.org/2000/svg" font-family="monospace, sans-serif">

  <!-- Background -->
  <rect width="700" height="320" fill="#0f1117" rx="10"/>

  <!-- Title -->
  <text x="350" y="28" text-anchor="middle" fill="#e2e8f0" font-size="14" font-weight="bold">Blocking Assignment in Sequential Block</text>
  <text x="350" y="46" text-anchor="middle" fill="#f87171" font-size="12">Result: All 4 flip-flops capture D in the same cycle — no chaining</text>

  <!-- D input line -->
  <line x1="30" y1="170" x2="90" y2="170" stroke="#60a5fa" stroke-width="2"/>
  <text x="18" y="174" fill="#60a5fa" font-size="13" font-weight="bold">D</text>

  <!-- Vertical bus from D to all FFs -->
  <line x1="90" y1="80" x2="90" y2="260" stroke="#60a5fa" stroke-width="2" stroke-dasharray="5,3"/>

  <!-- FF1 -->
  <rect x="110" y="130" width="80" height="80" fill="#1e293b" stroke="#60a5fa" stroke-width="2" rx="4"/>
  <text x="150" y="163" text-anchor="middle" fill="#94a3b8" font-size="10">FF</text>
  <text x="150" y="178" text-anchor="middle" fill="#e2e8f0" font-size="13" font-weight="bold">a</text>
  <text x="122" y="198" fill="#94a3b8" font-size="9">D  Q</text>
  <!-- D input tap -->
  <line x1="90" y1="170" x2="110" y2="170" stroke="#60a5fa" stroke-width="2"/>
  <!-- clk -->
  <line x1="150" y1="210" x2="150" y2="220" stroke="#a78bfa" stroke-width="1.5"/>
  <text x="155" y="220" fill="#a78bfa" font-size="9">clk</text>
  <!-- Q output -->
  <line x1="190" y1="170" x2="240" y2="170" stroke="#34d399" stroke-width="2"/>
  <text x="195" y="165" fill="#34d399" font-size="10">a</text>

  <!-- FF2 -->
  <rect x="260" y="130" width="80" height="80" fill="#1e293b" stroke="#60a5fa" stroke-width="2" rx="4"/>
  <text x="300" y="163" text-anchor="middle" fill="#94a3b8" font-size="10">FF</text>
  <text x="300" y="178" text-anchor="middle" fill="#e2e8f0" font-size="13" font-weight="bold">b</text>
  <text x="272" y="198" fill="#94a3b8" font-size="9">D  Q</text>
  <!-- D input tap from bus -->
  <line x1="90" y1="130" x2="90" y2="115" stroke="#60a5fa" stroke-width="2" stroke-dasharray="5,3"/>
  <line x1="90" y1="115" x2="260" y2="115" stroke="#f87171" stroke-width="2" stroke-dasharray="5,3"/>
  <line x1="260" y1="115" x2="260" y2="170" stroke="#f87171" stroke-width="2" stroke-dasharray="5,3"/>
  <!-- clk -->
  <line x1="300" y1="210" x2="300" y2="220" stroke="#a78bfa" stroke-width="1.5"/>
  <text x="305" y="220" fill="#a78bfa" font-size="9">clk</text>
  <!-- Q output -->
  <line x1="340" y1="170" x2="390" y2="170" stroke="#34d399" stroke-width="2"/>
  <text x="345" y="165" fill="#34d399" font-size="10">b</text>

  <!-- FF3 -->
  <rect x="410" y="130" width="80" height="80" fill="#1e293b" stroke="#60a5fa" stroke-width="2" rx="4"/>
  <text x="450" y="163" text-anchor="middle" fill="#94a3b8" font-size="10">FF</text>
  <text x="450" y="178" text-anchor="middle" fill="#e2e8f0" font-size="13" font-weight="bold">c</text>
  <text x="422" y="198" fill="#94a3b8" font-size="9">D  Q</text>
  <!-- D input tap from bus -->
  <line x1="90" y1="240" x2="90" y2="255" stroke="#60a5fa" stroke-width="2" stroke-dasharray="5,3"/>
  <line x1="90" y1="100" x2="410" y2="100" stroke="#f87171" stroke-width="2" stroke-dasharray="5,3"/>
  <line x1="410" y1="100" x2="410" y2="170" stroke="#f87171" stroke-width="2" stroke-dasharray="5,3"/>
  <!-- clk -->
  <line x1="450" y1="210" x2="450" y2="220" stroke="#a78bfa" stroke-width="1.5"/>
  <text x="455" y="220" fill="#a78bfa" font-size="9">clk</text>
  <!-- Q output -->
  <line x1="490" y1="170" x2="540" y2="170" stroke="#34d399" stroke-width="2"/>
  <text x="495" y="165" fill="#34d399" font-size="10">c</text>

  <!-- FF4 -->
  <rect x="560" y="130" width="80" height="80" fill="#1e293b" stroke="#60a5fa" stroke-width="2" rx="4"/>
  <text x="600" y="163" text-anchor="middle" fill="#94a3b8" font-size="10">FF</text>
  <text x="600" y="178" text-anchor="middle" fill="#e2e8f0" font-size="13" font-weight="bold">q</text>
  <text x="572" y="198" fill="#94a3b8" font-size="9">D  Q</text>
  <!-- D input tap from bus -->
  <line x1="90" y1="85" x2="560" y2="85" stroke="#f87171" stroke-width="2" stroke-dasharray="5,3"/>
  <line x1="560" y1="85" x2="560" y2="170" stroke="#f87171" stroke-width="2" stroke-dasharray="5,3"/>
  <!-- clk -->
  <line x1="600" y1="210" x2="600" y2="220" stroke="#a78bfa" stroke-width="1.5"/>
  <text x="605" y="220" fill="#a78bfa" font-size="9">clk</text>
  <!-- Q output -->
  <line x1="640" y1="170" x2="670" y2="170" stroke="#34d399" stroke-width="2"/>
  <text x="655" y="165" fill="#34d399" font-size="10">Q</text>

  <!-- Warning box -->
  <rect x="60" y="268" width="580" height="36" fill="#7f1d1d" rx="6" opacity="0.8"/>
  <text x="350" y="283" text-anchor="middle" fill="#fca5a5" font-size="11" font-weight="bold">⚠ All D inputs tie to the same source.</text>
  <text x="350" y="298" text-anchor="middle" fill="#fca5a5" font-size="11">Every FF captures D simultaneously — a, b, c, q are all identical. No pipeline delay.</text>

  <!-- Code snippet -->
  <rect x="60" y="58" width="580" height="58" fill="#1e293b" rx="6" opacity="0.9"/>
  <text x="75" y="74" fill="#94a3b8" font-size="10">// Blocking assignments in clocked always block</text>
  <text x="75" y="90" fill="#fbbf24" font-size="11">always @(posedge clk) begin  a = d;  b = a;  c = b;  q = c;  end</text>
  <text x="75" y="107" fill="#f87171" font-size="10">// b = a uses the NEW value of a (already = d), so b = d too. Same for c and q.</text>

</svg>
