<?xml version="1.0" encoding="UTF-8"?>
<svg viewBox="0 0 700 250" xmlns="http://www.w3.org/2000/svg" font-family="ui-monospace,SFMono-Regular,monospace">
<rect x="22" y="30" width="216" height="200" rx="8" fill="#f8fafc" stroke="#e2e8f0"/>
<text x="130" y="52" text-anchor="middle" font-size="13" font-weight="600" fill="#64748b">25% duty</text>
<line x1="35" y1="115" x2="224.89999999999998" y2="115" stroke="#e2e8f0" stroke-width="1"/>
<line x1="35" y1="70" x2="224.89999999999998" y2="70" stroke="#e2e8f0" stroke-width="1" stroke-dasharray="2 3"/>
<polyline points="35.0,70.0 50.8,70.0 50.8,115.0 98.3,115.0 98.3,70.0 114.1,70.0 114.1,115.0 161.6,115.0 161.6,70.0 177.4,70.0 177.4,115.0 224.9,115.0 224.9,70.0" fill="none" stroke="#0ea5e9" stroke-width="2.4" stroke-linejoin="round"/>
<circle cx="130" cy="180" r="21" fill="#f59e0b" opacity="0.34"/>
<circle cx="130" cy="180" r="21" fill="none" stroke="#94a3b8" stroke-width="1"/>
<text x="130" y="222" text-anchor="middle" font-size="11" fill="#64748b">dim</text>
<rect x="242" y="30" width="216" height="200" rx="8" fill="#f8fafc" stroke="#e2e8f0"/>
<text x="350" y="52" text-anchor="middle" font-size="13" font-weight="600" fill="#64748b">50% duty</text>
<line x1="255" y1="115" x2="444.9" y2="115" stroke="#e2e8f0" stroke-width="1"/>
<line x1="255" y1="70" x2="444.9" y2="70" stroke="#e2e8f0" stroke-width="1" stroke-dasharray="2 3"/>
<polyline points="255.0,70.0 286.6,70.0 286.6,115.0 318.3,115.0 318.3,70.0 349.9,70.0 349.9,115.0 381.6,115.0 381.6,70.0 413.2,70.0 413.2,115.0 444.9,115.0 444.9,70.0" fill="none" stroke="#0ea5e9" stroke-width="2.4" stroke-linejoin="round"/>
<circle cx="350" cy="180" r="21" fill="#f59e0b" opacity="0.56"/>
<circle cx="350" cy="180" r="21" fill="none" stroke="#94a3b8" stroke-width="1"/>
<text x="350" y="222" text-anchor="middle" font-size="11" fill="#64748b">medium</text>
<rect x="462" y="30" width="216" height="200" rx="8" fill="#f8fafc" stroke="#e2e8f0"/>
<text x="570" y="52" text-anchor="middle" font-size="13" font-weight="600" fill="#64748b">80% duty</text>
<line x1="475" y1="115" x2="664.9" y2="115" stroke="#e2e8f0" stroke-width="1"/>
<line x1="475" y1="70" x2="664.9" y2="70" stroke="#e2e8f0" stroke-width="1" stroke-dasharray="2 3"/>
<polyline points="475.0,70.0 525.6,70.0 525.6,115.0 538.3,115.0 538.3,70.0 588.9,70.0 588.9,115.0 601.6,115.0 601.6,70.0 652.2,70.0 652.2,115.0 664.9,115.0 664.9,70.0" fill="none" stroke="#0ea5e9" stroke-width="2.4" stroke-linejoin="round"/>
<circle cx="570" cy="180" r="21" fill="#f59e0b" opacity="0.82"/>
<circle cx="570" cy="180" r="21" fill="none" stroke="#94a3b8" stroke-width="1"/>
<text x="570" y="222" text-anchor="middle" font-size="11" fill="#64748b">bright</text>
  <text class="electronut-credit" x="692" y="242" text-anchor="end" font-family="ui-monospace,SFMono-Regular,monospace" font-size="9" fill="#9ca3af" opacity="0.8">© Electronut Labs</text>
</svg>
